<svg width="30" height="30" viewBox="0 0 30 30" fill="none" xmlns="http://www.w3.org/2000/svg">
<path fill-rule="evenodd" clip-rule="evenodd" d="M10.1461 13.0049L15.0012 8.14977L19.8605 13.0091L22.6854 10.1842L15.0012 2.5L7.32121 10.18L10.1461 13.0049ZM2.5 15.0009L5.32415 12.1767L8.14829 15.0009L5.32415 17.825L2.5 15.0009ZM15.0012 21.854L10.1461 16.9988L7.31701 19.8196L7.32117 19.8237L15.0012 27.5038L22.6854 19.8196L19.8605 16.9947L15.0012 21.854ZM21.8517 15.0029L24.6759 12.1787L27.5 15.0029L24.6759 17.827L21.8517 15.0029ZM15.0012 12.1354L17.8677 15.0019L15.0012 17.8725L12.1347 15.006V14.9977L12.6381 14.4943L12.8836 14.253L15.0012 12.1354Z" fill="#F3BA2F"/>
</svg>
