<svg width="25" height="25" viewBox="0 0 25 25" fill="none" xmlns="http://www.w3.org/2000/svg">
<ellipse cx="12.0833" cy="12.085" rx="12.0833" ry="12.085" fill="#F7931A"/>
<path fill-rule="evenodd" clip-rule="evenodd" d="M14.1611 12.0512C14.8927 11.8737 15.4461 11.3763 15.5987 10.3527C15.8093 8.95451 14.7799 8.20916 13.3693 7.7163L13.8377 5.82145L12.7196 5.5409L12.2632 7.38571C11.97 7.3114 11.6685 7.24164 11.3684 7.1734L11.8279 5.31571L10.7105 5.03516L10.2421 6.92925C9.99844 6.87389 9.75933 6.81854 9.52774 6.76016L9.52925 6.75485L7.98781 6.36663L7.68329 7.59801C7.68329 7.59801 8.51265 7.78985 8.49461 7.80122C8.94801 7.91572 9.02847 8.22356 9.01343 8.46848L8.47957 10.6272C8.51922 10.6372 8.55816 10.6498 8.59611 10.6651L8.47731 10.6355L7.7299 13.6594C7.67351 13.8012 7.53215 14.0143 7.21484 13.9362C7.22612 13.9521 6.40277 13.7314 6.40277 13.7314L5.84033 15.0523L7.2953 15.4185C7.45924 15.4599 7.62098 15.5023 7.78119 15.5443C7.88549 15.5717 7.98914 15.5989 8.09233 15.6255L7.61862 17.5424L8.73447 17.8229L9.20367 15.9273C9.49956 16.0082 9.79634 16.0858 10.0939 16.1601L9.627 18.0481L10.7443 18.3287L11.2181 16.4164C13.1249 16.7765 14.5611 16.6188 15.1747 14.8392C15.6687 13.4061 15.1619 12.5842 14.1611 12.0512ZM19.2244 16.5528L19.6342 14.8976L21.2756 15.3108L21.5486 14.2068L19.9071 13.7943L20.3162 12.1391L19.2221 11.8638L18.8123 13.5191L17.1709 13.1066L16.8979 14.2098L18.5394 14.6223L18.1303 16.2783L19.2244 16.5528ZM13.0217 14.0567C13.3536 12.714 11.4228 12.278 10.4785 12.0648L10.4785 12.0648C10.3723 12.0408 10.2786 12.0197 10.202 12.0004L9.57568 14.5382C9.63846 14.5539 9.71206 14.5735 9.79447 14.5955C10.707 14.8387 12.6991 15.3697 13.0232 14.056L13.0217 14.0567ZM11.2897 8.58833C12.077 8.76348 13.6896 9.12227 13.3881 10.3444C13.0921 11.5399 11.4301 11.091 10.671 10.886C10.6029 10.8676 10.5421 10.8511 10.4902 10.838L11.0594 8.53527C11.1232 8.55128 11.2012 8.56865 11.2897 8.58833Z" fill="white"/>
</svg>
