<svg width="25" height="25" viewBox="0 0 25 25" fill="none" xmlns="http://www.w3.org/2000/svg">
<circle cx="12.085" cy="12.085" r="12.085" fill="white"/>
<path d="M17.6562 5.3335H19.9687L15.1562 10.0985C13.4134 11.8232 10.5878 11.8232 8.8437 10.0985L4.02933 5.3335H6.3437L9.99995 8.95318C10.5327 9.47822 11.2506 9.77254 11.9985 9.77254C12.7465 9.77254 13.4644 9.47822 13.9971 8.95318L17.6562 5.3335Z" fill="#23292F"/>
<path d="M6.31406 18.5835H4L8.84375 13.7891C10.5866 12.0644 13.4122 12.0644 15.1562 13.7891L20 18.5835H17.6875L14 14.9344C13.4673 14.4094 12.7494 14.1151 12.0014 14.1151C11.2534 14.1151 10.5355 14.4094 10.0028 14.9344L6.31406 18.5835Z" fill="#23292F"/>
</svg>
