<svg width="25" height="25" viewBox="0 0 25 25" fill="none" xmlns="http://www.w3.org/2000/svg">
<g clip-path="url(#clip0_73_2600)">
<path d="M12.085 0C18.76 0 24.17 5.41111 24.17 12.085C24.17 18.76 18.76 24.17 12.085 24.17C5.41111 24.17 0 18.7594 0 12.085C0 5.41111 5.41111 0 12.085 0Z" fill="#F5AC37"/>
<path d="M12.5303 12.9382H17.1224C17.2202 12.9382 17.2665 12.9382 17.2735 12.8099C17.3111 12.3427 17.3111 11.8729 17.2735 11.4052C17.2735 11.3144 17.2284 11.2768 17.13 11.2768H7.9909C7.87778 11.2768 7.84733 11.3144 7.84733 11.4204V12.7648C7.84733 12.9382 7.84733 12.9382 8.02842 12.9382H12.5303ZM16.7607 9.70571C16.7738 9.67145 16.7738 9.63393 16.7607 9.60021C16.684 9.43325 16.5932 9.27391 16.4877 9.12436C16.3289 8.86876 16.1418 8.63328 15.9286 8.42173C15.828 8.29393 15.7117 8.17918 15.5811 8.08183C14.9275 7.5255 14.1503 7.13176 13.315 6.93381C12.8935 6.83918 12.4628 6.79404 12.031 6.79785H7.97513C7.86201 6.79785 7.84678 6.84299 7.84678 6.94142V9.62251C7.84678 9.73562 7.84678 9.76608 7.99035 9.76608H16.7063C16.7063 9.76608 16.7819 9.75085 16.7971 9.70571H16.7602H16.7607ZM16.7607 14.5094C16.6324 14.4952 16.5029 14.4952 16.3746 14.5094H7.99851C7.88539 14.5094 7.84733 14.5094 7.84733 14.6605V17.2818C7.84733 17.4025 7.84733 17.433 7.99851 17.433H11.8657C12.0506 17.4471 12.2355 17.4341 12.4166 17.3955C12.9778 17.3552 13.5298 17.2334 14.0562 17.0327C14.2477 16.9664 14.4326 16.8799 14.6071 16.776H14.6599C15.5665 16.3045 16.3028 15.5639 16.7672 14.6546C16.7672 14.6546 16.82 14.5404 16.7607 14.5105V14.5094ZM6.32949 18.792V18.7469V16.9871V16.3905V14.6154C6.32949 14.517 6.32949 14.5023 6.20876 14.5023H4.56966C4.47884 14.5023 4.44131 14.5023 4.44131 14.3816V12.9464H6.19354C6.29143 12.9464 6.32949 12.9464 6.32949 12.8181V11.3981C6.32949 11.3073 6.32949 11.285 6.20876 11.285H4.56966C4.47884 11.285 4.44131 11.285 4.44131 11.1643V9.83514C4.44131 9.75194 4.44131 9.72964 4.56205 9.72964H6.18592C6.29904 9.72964 6.32949 9.72964 6.32949 9.58607V5.51495C6.32949 5.39422 6.32949 5.36377 6.48068 5.36377H12.1452C12.5564 5.38008 12.9648 5.42522 13.3688 5.49973C14.2014 5.65363 15.0014 5.95111 15.7329 6.37584C16.218 6.66135 16.6644 7.00614 17.062 7.40313C17.3611 7.71366 17.6308 8.04975 17.8701 8.40759C18.1078 8.77032 18.3052 9.15807 18.4602 9.56323C18.4792 9.66873 18.5804 9.73997 18.6859 9.72203H20.0378C20.2113 9.72203 20.2113 9.72203 20.2189 9.88844V11.1273C20.2189 11.248 20.1738 11.2785 20.0525 11.2785H19.01C18.9045 11.2785 18.874 11.2785 18.8816 11.4144C18.923 11.8745 18.923 12.3362 18.8816 12.7963C18.8816 12.9246 18.8816 12.9399 19.0258 12.9399H20.2184C20.2711 13.0078 20.2184 13.0758 20.2184 13.1444C20.226 13.2319 20.226 13.3206 20.2184 13.4081V14.3223C20.2184 14.4506 20.1809 14.4887 20.0672 14.4887H18.6396C18.5401 14.4697 18.4433 14.5333 18.4205 14.6323C18.0806 15.516 17.5368 16.3084 16.8341 16.9435C16.5774 17.1747 16.3077 17.3922 16.026 17.5929C15.7236 17.7669 15.4294 17.948 15.1194 18.0916C14.5489 18.3483 13.9507 18.5375 13.3368 18.6577C12.7538 18.7621 12.1626 18.8094 11.5693 18.8013H6.32732V18.7937L6.32949 18.792Z" fill="#FEFEFD"/>
</g>
<defs>
<clipPath id="clip0_73_2600">
<rect width="24.17" height="24.17" fill="white"/>
</clipPath>
</defs>
</svg>
