<svg width="25" height="25" viewBox="0 0 25 25" fill="none" xmlns="http://www.w3.org/2000/svg">
<circle cx="12.085" cy="12.085" r="12.085" fill="white"/>
<path d="M12.1148 2.8335V9.58194C12.1148 9.61059 12.0862 9.63923 12.0575 9.63923C11.857 9.72681 11.6851 9.81357 11.4846 9.90033C11.2268 10.0157 10.9403 10.132 10.6825 10.2768L9.73712 10.7106L8.96365 11.0585L8.0183 11.4931C7.76047 11.6093 7.50265 11.7247 7.21618 11.8696C7.01565 11.9564 6.78647 12.0726 6.58594 12.1594C6.55729 12.1594 6.55729 12.188 6.52865 12.1594H6.5C6.58594 12.0145 6.67188 11.8983 6.75782 11.7542C7.21618 10.9717 7.70318 10.1901 8.16153 9.4076C8.64853 8.56865 9.16418 7.72806 9.65118 6.88829C10.1095 6.10663 10.5679 5.32498 11.0262 4.57197C11.37 3.99166 11.7138 3.44245 12.0289 2.86214C12.0862 2.86214 12.0862 2.8335 12.1148 2.8335C12.1148 2.8335 12.0862 2.8335 12.1148 2.8335Z" fill="#8C8C8C"/>
<path d="M17.6724 12.1596C17.2427 12.4494 16.7843 12.7096 16.3546 12.9699C14.9509 13.8105 13.5758 14.6216 12.1721 15.4614C12.1435 15.4614 12.1435 15.49 12.1148 15.49C12.0862 15.49 12.0862 15.4614 12.0862 15.4614V9.63949C12.0862 9.61084 12.1148 9.61084 12.1435 9.61084C12.2581 9.66813 12.3727 9.72707 12.5159 9.78436C12.8597 9.9587 13.2321 10.1036 13.5758 10.2771C13.8909 10.422 14.1774 10.5668 14.4925 10.6822C14.8077 10.8271 15.0941 10.972 15.4092 11.1169C15.6671 11.2331 15.9535 11.3485 16.2114 11.4934C16.4692 11.6096 16.7557 11.725 17.0135 11.8699C17.214 11.9566 17.4145 12.0729 17.6437 12.1596C17.6437 12.131 17.6437 12.1596 17.6724 12.1596Z" fill="#141414"/>
<path d="M12.1149 21.1669C12.1149 21.1669 12.0862 21.1669 12.1149 21.1669C12.0862 21.1669 12.0862 21.1669 12.0576 21.1374C11.4846 20.3271 10.9403 19.5446 10.3674 18.7335L8.64857 16.3009C8.10428 15.5193 7.53134 14.7376 6.98704 13.9257L6.55733 13.3175C6.55733 13.2889 6.52869 13.2889 6.52869 13.2603C6.55733 13.2603 6.55733 13.2889 6.58598 13.2889C7.35945 13.7522 8.16157 14.2154 8.93504 14.6787C9.8231 15.2295 10.7398 15.7509 11.6279 16.3009C11.7711 16.3877 11.943 16.4745 12.0862 16.5612C12.1149 16.5612 12.1149 16.5907 12.1149 16.6193V21.1669Z" fill="#8C8C8C"/>
<path d="M6.5 11.8561C6.5 11.8274 6.5 11.8274 6.5 11.8561C6.78647 11.7112 7.07294 11.5958 7.35941 11.4509L8.47665 10.9295C8.76312 10.7847 9.04959 10.6693 9.33606 10.5244C9.73712 10.3214 10.1668 10.1479 10.5679 9.9449C10.8544 9.82867 11.1408 9.6838 11.4273 9.56839C11.6278 9.48163 11.8284 9.39487 12.0289 9.27865C12.0575 9.27865 12.0575 9.25 12.0862 9.25V15.1579C12.0575 15.1873 12.0575 15.1579 12.0289 15.1579C11.943 15.1006 11.857 15.0711 11.7997 15.013L6.55729 11.8855C6.52865 11.8561 6.5 11.8561 6.5 11.8561ZM17.5864 12.9283C17.5864 12.9569 17.5864 12.9569 17.5578 12.9856C15.8963 15.3608 14.2347 17.7066 12.5732 20.0819C12.4013 20.3422 12.2294 20.5738 12.0575 20.8349V16.2293C12.43 15.9976 12.8024 15.766 13.1748 15.5638L17.5578 12.9569C17.5578 12.9283 17.5864 12.9283 17.5864 12.9283Z" fill="#3C3C3B"/>
<path d="M12.1149 9.61057V2.86377L17.6151 12.0734C17.6438 12.1021 17.6724 12.1307 17.6724 12.1602C17.5578 12.1029 17.4432 12.0439 17.3 11.9866C17.1568 11.9285 17.0135 11.8418 16.8703 11.7837C16.7843 11.755 16.6984 11.6969 16.5838 11.6674C16.4406 11.6101 16.2687 11.5226 16.1255 11.4653C16.0395 11.4358 15.9536 11.3785 15.8676 11.349L15.2661 11.0888C15.1515 11.0307 15.0655 11.002 14.9509 10.9439C14.8077 10.8858 14.6645 10.799 14.5212 10.7409C14.4353 10.7123 14.3493 10.6541 14.2634 10.6255L13.6618 10.3644C13.5472 10.3071 13.4613 10.2776 13.3467 10.2195C13.2035 10.1622 13.0602 10.0747 12.917 10.0165C12.831 9.95925 12.7165 9.92979 12.6305 9.87249L12.1149 9.61139V9.61057Z" fill="#343434"/>
</svg>
