<svg width="32" height="32" viewBox="0 0 32 32" fill="none" xmlns="http://www.w3.org/2000/svg">
<path fill-rule="evenodd" clip-rule="evenodd" d="M7.55284 4.51809L2.6885 14.7336C2.66905 14.7706 2.66235 14.813 2.66944 14.8542C2.67653 14.8954 2.69702 14.9331 2.72772 14.9615L15.8586 27.5503C15.8964 27.5843 15.9455 27.6032 15.9964 27.6032C16.0472 27.6032 16.0963 27.5843 16.1341 27.5503L29.2728 14.9615C29.3032 14.9329 29.3235 14.8952 29.3306 14.8541C29.3376 14.813 29.3311 14.7707 29.3121 14.7336L24.4477 4.51809C24.4348 4.48256 24.411 4.45201 24.3797 4.4308C24.3484 4.4096 24.3112 4.39881 24.2734 4.39999H7.72541C7.68812 4.40101 7.6519 4.41267 7.62101 4.43359C7.59013 4.45452 7.56587 4.48383 7.5511 4.51809H7.55284Z" fill="#50AF95"/>
<path fill-rule="evenodd" clip-rule="evenodd" d="M17.6902 15.7786C17.5961 15.7865 17.1089 15.8178 16.0242 15.8178C15.16 15.8178 14.5469 15.7943 14.3268 15.7786C10.9873 15.6296 8.49628 15.0478 8.49628 14.3562C8.49628 13.6646 10.9873 13.0754 14.3268 12.9263V15.1973C14.5447 15.2129 15.1679 15.2522 16.032 15.2522C17.0692 15.2522 17.5878 15.2051 17.6824 15.1973V12.9263C21.014 13.0754 23.505 13.6572 23.505 14.3483C23.505 15.0395 21.021 15.6296 17.6902 15.7786ZM17.6902 12.6984V10.6628H22.3423V7.55908H9.6751V10.6628H14.3268V12.6984C10.5471 12.8727 7.7027 13.6175 7.7027 14.5213C7.7027 15.4252 10.5471 16.1638 14.3268 16.3443V22.859H17.6902V16.3443C21.462 16.1699 24.2991 15.4247 24.2991 14.5292C24.2991 13.6336 21.462 12.871 17.6902 12.6988V12.6984Z" fill="white"/>
</svg>
