<svg width="26" height="26" viewBox="0 0 26 26" fill="none" xmlns="http://www.w3.org/2000/svg">
<circle cx="13" cy="13" r="13" fill="#A2E941"/>
<path d="M17.6525 11.0787C17.6472 10.6848 17.5735 10.2949 17.4346 9.92634C17.3141 9.61546 17.1302 9.33312 16.8944 9.09737C16.6587 8.86162 16.3763 8.67764 16.0654 8.55718C15.7016 8.42061 15.3173 8.34676 14.9287 8.33878C14.4285 8.31642 14.2699 8.31018 13 8.31018C11.7302 8.31018 11.5674 8.31018 11.0708 8.33878C10.6825 8.34682 10.2983 8.42066 9.93464 8.55718C9.62371 8.67756 9.34133 8.86151 9.10557 9.09727C8.86981 9.33303 8.68586 9.61541 8.56548 9.92634C8.42863 10.2899 8.35495 10.6742 8.3476 11.0625C8.32524 11.5633 8.31848 11.7219 8.31848 12.9917C8.31848 14.2616 8.31848 14.4238 8.3476 14.9209C8.3554 15.3099 8.42872 15.6937 8.56548 16.0582C8.68606 16.369 8.87015 16.6513 9.10599 16.8869C9.34183 17.1226 9.62423 17.3065 9.93516 17.4268C10.2978 17.5689 10.6821 17.648 11.0714 17.6608C11.5721 17.6832 11.7307 17.6899 13.0006 17.6899C14.2704 17.6899 14.4332 17.6899 14.9298 17.6608C15.3183 17.6532 15.7027 17.5795 16.0665 17.4429C16.3773 17.3223 16.6595 17.1383 16.8953 16.9026C17.131 16.6668 17.315 16.3846 17.4356 16.0738C17.5724 15.7098 17.6457 15.326 17.6535 14.9365C17.6759 14.4363 17.6826 14.2777 17.6826 13.0073C17.6816 11.7375 17.6816 11.5763 17.6525 11.0787ZM12.9969 15.3931C11.6688 15.3931 10.593 14.3172 10.593 12.9891C10.593 11.6611 11.6688 10.5852 12.9969 10.5852C13.6345 10.5852 14.2459 10.8385 14.6968 11.2893C15.1476 11.7401 15.4009 12.3516 15.4009 12.9891C15.4009 13.6267 15.1476 14.2382 14.6968 14.689C14.2459 15.1398 13.6345 15.3931 12.9969 15.3931ZM15.4966 11.0568C15.4229 11.0569 15.35 11.0424 15.282 11.0143C15.2139 10.9861 15.1521 10.9449 15.1 10.8928C15.048 10.8407 15.0067 10.7789 14.9785 10.7109C14.9504 10.6428 14.9359 10.5699 14.936 10.4963C14.936 10.4227 14.9505 10.3498 14.9787 10.2818C15.0068 10.2139 15.0481 10.1521 15.1001 10.1001C15.1521 10.048 15.2139 10.0068 15.2819 9.97861C15.3499 9.95045 15.4227 9.93596 15.4963 9.93596C15.5699 9.93596 15.6427 9.95045 15.7107 9.97861C15.7787 10.0068 15.8405 10.048 15.8925 10.1001C15.9445 10.1521 15.9858 10.2139 16.014 10.2818C16.0421 10.3498 16.0566 10.4227 16.0566 10.4963C16.0566 10.8062 15.806 11.0568 15.4966 11.0568Z" fill="#0F0F0F"/>
<path d="M12.9968 14.5506C13.8592 14.5506 14.5584 13.8515 14.5584 12.9891C14.5584 12.1266 13.8592 11.4275 12.9968 11.4275C12.1344 11.4275 11.4352 12.1266 11.4352 12.9891C11.4352 13.8515 12.1344 14.5506 12.9968 14.5506Z" fill="#0F0F0F"/>
</svg>
