<svg width="26" height="26" viewBox="0 0 26 26" fill="none" xmlns="http://www.w3.org/2000/svg">
<circle cx="13" cy="13" r="13" fill="#A2E941"/>
<path d="M9.3512 10.5024C9.97957 10.5024 10.489 9.99306 10.489 9.36469C10.489 8.73632 9.97957 8.22693 9.3512 8.22693C8.72283 8.22693 8.21344 8.73632 8.21344 9.36469C8.21344 9.99306 8.72283 10.5024 9.3512 10.5024Z" fill="#0F0F0F"/>
<path d="M11.5633 11.3646V17.6769H13.5232V14.5553C13.5232 13.7317 13.6781 12.934 14.6994 12.934C15.7066 12.934 15.7191 13.8757 15.7191 14.6073V17.6774H17.68V14.2158C17.68 12.5154 17.314 11.2086 15.3265 11.2086C14.3723 11.2086 13.7327 11.7323 13.4712 12.2278H13.4446V11.3646H11.5633ZM8.36945 11.3646H10.3324V17.6769H8.36945V11.3646Z" fill="#0F0F0F"/>
</svg>
