<svg width="26" height="26" viewBox="0 0 26 26" fill="none" xmlns="http://www.w3.org/2000/svg">
<circle cx="13" cy="13" r="13" fill="#A2E941"/>
<g clip-path="url(#clip0_73_2083)">
<path d="M19.0544 9.32727C18.6202 9.51967 18.1537 9.64967 17.6634 9.70843C18.1693 9.40568 18.5479 8.92919 18.7283 8.36787C18.253 8.65022 17.7327 8.84897 17.1902 8.95547C16.8253 8.56592 16.3421 8.30772 15.8155 8.22096C15.2888 8.13419 14.7483 8.22372 14.2778 8.47564C13.8073 8.72756 13.4331 9.12778 13.2133 9.61416C12.9935 10.1005 12.9405 10.6459 13.0624 11.1655C12.0992 11.1171 11.1569 10.8668 10.2968 10.4307C9.43657 9.99457 8.67769 9.38247 8.06937 8.63411C7.86137 8.99291 7.74177 9.40891 7.74177 9.85195C7.74154 10.2508 7.83976 10.6435 8.02771 10.9953C8.21566 11.3471 8.48754 11.647 8.81921 11.8685C8.43456 11.8563 8.05839 11.7523 7.72201 11.5653V11.5965C7.72197 12.1559 7.91547 12.6981 8.26967 13.1311C8.62387 13.564 9.11695 13.8611 9.66525 13.9719C9.30842 14.0685 8.93431 14.0827 8.57117 14.0135C8.72587 14.4948 9.02721 14.9157 9.433 15.2173C9.8388 15.5188 10.3287 15.6859 10.8342 15.6952C9.97613 16.3688 8.91639 16.7342 7.82549 16.7326C7.63225 16.7326 7.43917 16.7214 7.24725 16.6988C8.35458 17.4108 9.64359 17.7886 10.9601 17.7871C15.4165 17.7871 17.8527 14.0962 17.8527 10.8951C17.8527 10.7911 17.8501 10.686 17.8454 10.582C18.3192 10.2393 18.7283 9.81498 19.0533 9.32883L19.0544 9.32727Z" fill="#0F0F0F"/>
</g>
<defs>
<clipPath id="clip0_73_2083">
<rect width="12.48" height="12.48" fill="white" transform="translate(6.76007 6.76001)"/>
</clipPath>
</defs>
</svg>
