<svg width="260" height="417" viewBox="0 0 260 417" fill="none" xmlns="http://www.w3.org/2000/svg">
<g opacity="0.16">
<mask id="mask0_73_2769" style="mask-type:alpha" maskUnits="userSpaceOnUse" x="0" y="0" width="260" height="417">
<rect width="260" height="417" rx="24" fill="#162843"/>
</mask>
<g mask="url(#mask0_73_2769)">
<path d="M84 -5.5C106.667 5 70.1706 97 180 97C238 97 225.5 172.167 260.5 177.5" stroke="#A2E941"/>
<path d="M147 -30C169.667 -19.5 133.171 72.5 243 72.5C301 72.5 288.5 147.667 323.5 153" stroke="#A2E941"/>
<path d="M-16 58.8675C20.7883 52.2038 96.108 52.1942 81 91.4844C56 156.5 114.861 220.374 272 233" stroke="#A2E941"/>
<path d="M-84 83.1004C-38.5255 74.8766 54.578 74.8648 35.9028 123.353C5 203.59 77.7591 282.418 272 298" stroke="#A2E941"/>
<path d="M-131 123.643C-79.5219 114.331 25.8734 114.317 4.73264 169.227C-30.25 260.088 52.115 349.355 272 367" stroke="#A2E941"/>
</g>
</g>
</svg>
