<svg width="10" height="10" viewBox="0 0 10 10" fill="none" xmlns="http://www.w3.org/2000/svg">
<g clip-path="url(#clip0_73_2711)">
<path d="M3.80664 8.99998C3.50242 8.99998 3.21429 8.88397 3.02967 8.68396L0.530908 5.98599C0.453654 5.90267 0.397253 5.80772 0.364931 5.70658C0.332608 5.60544 0.324997 5.50008 0.342534 5.39653C0.36007 5.29298 0.40241 5.19327 0.467132 5.1031C0.531854 5.01293 0.61769 4.93407 0.719731 4.87103C0.821737 4.80772 0.938028 4.76149 1.06194 4.73497C1.18585 4.70846 1.31495 4.70219 1.44183 4.71653C1.56871 4.73086 1.69089 4.76552 1.80135 4.81851C1.91181 4.8715 2.00839 4.94178 2.08555 5.02533L3.72971 6.79921L7.86354 1.3747C8.00063 1.1956 8.21906 1.06824 8.47091 1.02057C8.72277 0.972893 8.98748 1.00879 9.20698 1.12039C9.66365 1.35241 9.80422 1.84389 9.51889 2.21764L4.63466 8.62395C4.55129 8.7338 4.43636 8.82536 4.29987 8.89069C4.16337 8.95602 4.00943 8.99315 3.8514 8.99884C3.83601 8.99998 3.82202 8.99998 3.80664 8.99998Z" fill="#0F0F0F"/>
</g>
<defs>
<clipPath id="clip0_73_2711">
<rect width="9.92" height="8.32" fill="white" transform="translate(0.0400085 0.839996)"/>
</clipPath>
</defs>
</svg>
