<svg width="50" height="50" viewBox="0 0 50 50" fill="none" xmlns="http://www.w3.org/2000/svg">
<rect width="50" height="50" rx="5" fill="#A2E941" fill-opacity="0.75"/>
<path d="M17.545 16H37.9974V29.635H17.545V16ZM27.7712 19.4087C28.6753 19.4087 29.5423 19.7679 30.1815 20.4071C30.8208 21.0464 31.1799 21.9134 31.1799 22.8175C31.1799 23.7215 30.8208 24.5886 30.1815 25.2278C29.5423 25.8671 28.6753 26.2262 27.7712 26.2262C26.8671 26.2262 26.0001 25.8671 25.3609 25.2278C24.7216 24.5886 24.3625 23.7215 24.3625 22.8175C24.3625 21.9134 24.7216 21.0464 25.3609 20.4071C26.0001 19.7679 26.8671 19.4087 27.7712 19.4087ZM22.09 18.2725C22.09 18.8752 21.8505 19.4532 21.4244 19.8794C20.9982 20.3056 20.4202 20.545 19.8175 20.545V25.09C20.4202 25.09 20.9982 25.3294 21.4244 25.7556C21.8505 26.1817 22.09 26.7598 22.09 27.3625H33.4524C33.4524 26.7598 33.6919 26.1817 34.118 25.7556C34.5442 25.3294 35.1222 25.09 35.7249 25.09V20.545C35.1222 20.545 34.5442 20.3056 34.118 19.8794C33.6919 19.4532 33.4524 18.8752 33.4524 18.2725H22.09ZM13 20.545H15.2725V31.9074H33.4524V34.1799H13V20.545Z" fill="#0F0F0F"/>
</svg>
