<svg width="10" height="10" viewBox="0 0 10 10" fill="none" xmlns="http://www.w3.org/2000/svg">
<g clip-path="url(#clip0_73_2788)">
<path d="M3.80662 9C3.50241 9 3.21428 8.88399 3.02965 8.68397L0.530893 5.986C0.453638 5.90268 0.397238 5.80774 0.364915 5.70659C0.332593 5.60545 0.324982 5.50009 0.342519 5.39654C0.360055 5.29299 0.402394 5.19329 0.467116 5.10312C0.531839 5.01295 0.617674 4.93409 0.719716 4.87104C0.821721 4.80774 0.938013 4.7615 1.06192 4.73499C1.18584 4.70848 1.31493 4.70221 1.44182 4.71654C1.5687 4.73088 1.69087 4.76553 1.80133 4.81852C1.9118 4.87151 2.00838 4.9418 2.08554 5.02534L3.7297 6.79922L7.86352 1.37472C8.00062 1.19561 8.21905 1.06826 8.4709 1.02058C8.72275 0.972909 8.98746 1.00881 9.20696 1.12041C9.66364 1.35243 9.8042 1.8439 9.51887 2.21765L4.63465 8.62397C4.55127 8.73382 4.43635 8.82538 4.29985 8.89071C4.16336 8.95604 4.00941 8.99316 3.85138 8.99886C3.836 9 3.82201 9 3.80662 9Z" fill="#A2E941"/>
</g>
<defs>
<clipPath id="clip0_73_2788">
<rect width="9.92" height="8.32" fill="white" transform="translate(0.0400009 0.840004)"/>
</clipPath>
</defs>
</svg>
