<svg width="35" height="35" viewBox="0 0 35 35" fill="none" xmlns="http://www.w3.org/2000/svg">
<path fill-rule="evenodd" clip-rule="evenodd" d="M17.5 32.8125C21.5611 32.8125 25.4559 31.1992 28.3276 28.3276C31.1992 25.4559 32.8125 21.5611 32.8125 17.5C32.8125 13.4389 31.1992 9.54408 28.3276 6.67243C25.4559 3.80078 21.5611 2.1875 17.5 2.1875C13.4389 2.1875 9.54408 3.80078 6.67243 6.67243C3.80078 9.54408 2.1875 13.4389 2.1875 17.5C2.1875 21.5611 3.80078 25.4559 6.67243 28.3276C9.54408 31.1992 13.4389 32.8125 17.5 32.8125ZM17.5 35C22.1413 35 26.5925 33.1563 29.8744 29.8744C33.1563 26.5925 35 22.1413 35 17.5C35 12.8587 33.1563 8.40752 29.8744 5.12563C26.5925 1.84374 22.1413 0 17.5 0C12.8587 0 8.40752 1.84374 5.12563 5.12563C1.84374 8.40752 0 12.8587 0 17.5C0 22.1413 1.84374 26.5925 5.12563 29.8744C8.40752 33.1563 12.8587 35 17.5 35Z" fill="#A2E941"/>
<path d="M19.5344 14.4152L14.525 15.043L14.3456 15.8743L15.33 16.0558C15.9731 16.209 16.1 16.4408 15.96 17.0818L14.3456 24.668C13.9213 26.6302 14.5753 27.5533 16.1131 27.5533C17.3053 27.5533 18.69 27.0021 19.3178 26.2452L19.5103 25.3352C19.0728 25.7202 18.4341 25.8733 18.0097 25.8733C17.4081 25.8733 17.1894 25.4512 17.3447 24.7074L19.5344 14.4152Z" fill="#A2E941"/>
<path d="M17.5 12.0312C18.7081 12.0312 19.6875 11.0518 19.6875 9.84369C19.6875 8.63557 18.7081 7.65619 17.5 7.65619C16.2919 7.65619 15.3125 8.63557 15.3125 9.84369C15.3125 11.0518 16.2919 12.0312 17.5 12.0312Z" fill="#A2E941"/>
</svg>
