<svg width="50" height="50" viewBox="0 0 50 50" fill="none" xmlns="http://www.w3.org/2000/svg">
<rect width="50" height="50" rx="5" fill="#A2E941" fill-opacity="0.75"/>
<g clip-path="url(#clip0_73_2121)">
<path d="M25.1294 10C25.6206 10 26.1044 10.0319 26.5544 10.1069C26.9976 10.165 27.4349 10.2616 27.8613 10.3956C28.2888 10.525 28.7069 10.6863 29.125 10.8888C29.5319 11.0819 29.95 11.3181 30.3681 11.575C31.075 12.025 31.7706 12.3888 32.4794 12.6794C33.8747 13.2378 35.3501 13.5701 36.85 13.6638C37.6113 13.7181 38.3931 13.75 39.2069 13.75V21.25C39.2069 22.675 39.025 24.025 38.6613 25.3113C38.3119 26.5792 37.8154 27.8018 37.1819 28.9544C36.5511 30.1053 35.8047 31.189 34.9544 32.1888C34.091 33.2112 33.1561 34.1711 32.1569 35.0613C31.1444 35.954 30.078 36.7837 28.9638 37.5456C27.85 38.3181 26.725 39.0363 25.6 39.6888L25.15 39.9569L24.7 39.6888C23.5435 39.0192 22.4139 38.3043 21.3138 37.5456C20.1933 36.7923 19.1263 35.9622 18.1206 35.0613C17.122 34.1711 16.1878 33.2112 15.325 32.1888C14.4769 31.1848 13.7272 30.1017 13.0863 28.9544C12.4636 27.7967 11.9676 26.5753 11.6069 25.3113C11.2408 23.9889 11.0604 22.6221 11.0706 21.25V13.75C11.8863 13.75 12.6681 13.7181 13.4294 13.6638C14.1788 13.6117 14.9233 13.5045 15.6569 13.3431C16.375 13.1819 17.0931 12.9681 17.8 12.6794C18.5335 12.3834 19.2368 12.0173 19.9 11.5863C20.725 11.05 21.5613 10.6544 22.3863 10.3938C23.2748 10.1214 24.2001 9.98855 25.1294 10ZM37.3206 15.5931C35.9013 15.5243 34.4952 15.287 33.1319 14.8863C31.7758 14.4817 30.4841 13.8864 29.2956 13.1181C28.6792 12.7135 28.0097 12.3961 27.3063 12.175C26.6036 11.9626 25.8728 11.8577 25.1388 11.8638C24.3993 11.859 23.6631 11.9639 22.9544 12.175C22.2499 12.3889 21.5813 12.7068 20.9706 13.1181C19.7801 13.8906 18.4851 14.4885 17.125 14.8938C15.7956 15.28 14.4044 15.5163 12.9456 15.6025V21.2594C12.9456 22.5025 13.1069 23.6913 13.4294 24.8369C13.7579 25.9726 14.2107 27.0686 14.7794 28.105C15.3549 29.1523 16.0333 30.1396 16.8044 31.0525C17.5863 31.9731 18.4206 32.83 19.3206 33.6438C20.2206 34.4594 21.1638 35.2094 22.15 35.905C23.1456 36.6025 24.1431 37.2344 25.1388 37.8119C26.1582 37.2184 27.1522 36.5822 28.1181 35.905C29.1109 35.2116 30.059 34.4563 30.9569 33.6438C31.8569 32.83 32.6931 31.9731 33.475 31.0525C34.2462 30.1397 34.9246 29.1523 35.5 28.105C36.0662 27.0698 36.5122 25.9734 36.8294 24.8369C37.1617 23.6737 37.3271 22.4691 37.3206 21.2594V15.5931Z" fill="#0F0F0F"/>
<path fill-rule="evenodd" clip-rule="evenodd" d="M32.1194 18.8294L31.2944 18.1206L30.5331 18.1862L22.3581 27.8387L19.5738 23.8637L18.8238 23.7362L17.9556 24.3569L17.8263 25.1069L21.4056 30.2181L21.8125 30.4431L22.6694 30.4956L23.1081 30.3044L32.1738 19.5887L32.1194 18.8294Z" fill="#0F0F0F"/>
</g>
<defs>
<clipPath id="clip0_73_2121">
<rect width="30" height="30" fill="white" transform="translate(10 10)"/>
</clipPath>
</defs>
</svg>
