<svg width="50" height="50" viewBox="0 0 50 50" fill="none" xmlns="http://www.w3.org/2000/svg">
<rect width="50" height="50" rx="5" fill="#A2E941" fill-opacity="0.75"/>
<path fill-rule="evenodd" clip-rule="evenodd" d="M19.375 20.625C19.375 19.1332 19.9676 17.7024 21.0225 16.6475C22.0774 15.5926 23.5082 15 25 15C26.4918 15 27.9226 15.5926 28.9775 16.6475C30.0324 17.7024 30.625 19.1332 30.625 20.625V21.25H31.875V20.625C31.875 16.8281 28.7969 13.75 25 13.75C21.2031 13.75 18.125 16.8281 18.125 20.625V21.25H19.375V20.625ZM29.375 21.25V20.625C29.375 20.0505 29.2618 19.4816 29.042 18.9508C28.8221 18.42 28.4998 17.9377 28.0936 17.5314C27.6873 17.1252 27.205 16.8029 26.6742 16.583C26.1434 16.3632 25.5745 16.25 25 16.25C24.4255 16.25 23.8566 16.3632 23.3258 16.583C22.795 16.8029 22.3127 17.1252 21.9064 17.5314C21.5002 17.9377 21.1779 18.42 20.958 18.9508C20.7382 19.4816 20.625 20.0505 20.625 20.625V21.25H21.875V20.625C21.875 19.7962 22.2042 19.0013 22.7903 18.4153C23.3763 17.8292 24.1712 17.5 25 17.5C25.8288 17.5 26.6237 17.8292 27.2097 18.4153C27.7958 19.0013 28.125 19.7962 28.125 20.625V21.25H29.375ZM20.625 22.5H33.125V35H16.875V22.5H19.375V21.25H16.875C16.5435 21.25 16.2255 21.3817 15.9911 21.6161C15.7567 21.8505 15.625 22.1685 15.625 22.5V35C15.625 35.3315 15.7567 35.6495 15.9911 35.8839C16.2255 36.1183 16.5435 36.25 16.875 36.25H33.125C33.4565 36.25 33.7745 36.1183 34.0089 35.8839C34.2433 35.6495 34.375 35.3315 34.375 35V22.5C34.375 22.1685 34.2433 21.8505 34.0089 21.6161C33.7745 21.3817 33.4565 21.25 33.125 21.25H20.625V22.5Z" fill="#0F0F0F"/>
<path fill-rule="evenodd" clip-rule="evenodd" d="M30.625 26.25H19.375V25H30.625V26.25ZM30.625 29.375H19.375V28.125H30.625V29.375ZM30.625 32.5H19.375V31.25H30.625V32.5Z" fill="#0F0F0F"/>
</svg>
