<svg width="25" height="25" viewBox="0 0 25 25" fill="none" xmlns="http://www.w3.org/2000/svg">
<path d="M12.585 24.17C19.2594 24.17 24.67 18.7594 24.67 12.085C24.67 5.41064 19.2594 0 12.585 0C5.91064 0 0.5 5.41064 0.5 12.085C0.5 18.7594 5.91064 24.17 12.585 24.17Z" fill="url(#paint0_linear_0_423)"/>
<path d="M17.8736 16.9004L13.7871 7.0206C13.5566 6.5098 13.214 6.26062 12.7623 6.26062H12.401C11.9494 6.26062 11.6068 6.5098 11.3763 7.0206L9.59782 11.3251H8.25227C7.85048 11.3282 7.52343 11.6522 7.52032 12.0571V12.0664C7.52343 12.4682 7.85048 12.7952 8.25227 12.7984H8.97488L7.27737 16.9004C7.24623 16.9907 7.22754 17.0842 7.22754 17.1807C7.22754 17.4112 7.29918 17.5919 7.42688 17.732C7.55458 17.8722 7.73835 17.9407 7.96883 17.9407C8.12145 17.9376 8.26785 17.8909 8.38932 17.8005C8.52014 17.7102 8.61046 17.5794 8.6821 17.4299L10.5509 12.7952H11.8466C12.2484 12.7921 12.5755 12.4682 12.5786 12.0633V12.0446C12.5755 11.6428 12.2484 11.3158 11.8466 11.3126H11.1552L12.5817 7.75879L16.4688 17.4268C16.5405 17.5763 16.6308 17.7071 16.7616 17.7974C16.8831 17.8878 17.0326 17.9345 17.1821 17.9376C17.4126 17.9376 17.5932 17.8691 17.724 17.7289C17.8549 17.5888 17.9234 17.4081 17.9234 17.1776C17.9265 17.0842 17.9109 16.9876 17.8736 16.9004Z" fill="white"/>
<defs>
<linearGradient id="paint0_linear_0_423" x1="21.5968" y1="4.50479" x2="3.61429" y2="19.6328" gradientUnits="userSpaceOnUse">
<stop stop-color="#B6509E"/>
<stop offset="1" stop-color="#2EBAC6"/>
</linearGradient>
</defs>
</svg>
