<svg width="31" height="30" viewBox="0 0 31 30" fill="none" xmlns="http://www.w3.org/2000/svg">
<path fill-rule="evenodd" clip-rule="evenodd" d="M10.6461 13.0049L15.5012 8.14977L20.3605 13.0091L23.1854 10.1842L15.5012 2.5L7.82121 10.18L10.6461 13.0049ZM3 15.0009L5.82415 12.1767L8.64829 15.0009L5.82415 17.825L3 15.0009ZM15.5012 21.854L10.6461 16.9988L7.81701 19.8196L7.82117 19.8237L15.5012 27.5038L23.1854 19.8196L20.3605 16.9947L15.5012 21.854ZM22.3517 15.0029L25.1759 12.1787L28 15.0029L25.1759 17.827L22.3517 15.0029ZM15.5012 12.1354L18.3677 15.0019L15.5012 17.8725L12.6347 15.006V14.9977L13.1381 14.4943L13.3836 14.253L15.5012 12.1354Z" fill="#F3BA2F"/>
</svg>
