<svg width="25" height="25" viewBox="0 0 25 25" fill="none" xmlns="http://www.w3.org/2000/svg">
<circle cx="12.5833" cy="12.0833" r="12.0833" fill="#F7931A"/>
<path fill-rule="evenodd" clip-rule="evenodd" d="M14.6609 12.0497C15.3926 11.8723 15.946 11.375 16.0986 10.3515C16.3092 8.95348 15.2798 8.20823 13.8692 7.71544L14.3376 5.82086L13.2195 5.54035L12.7631 7.38489C12.4699 7.3106 12.1683 7.24085 11.8683 7.17262L12.3277 5.31518L11.2104 5.03467L10.7419 6.9285C10.4983 6.87315 10.2592 6.81781 10.0276 6.75943L10.0291 6.75412L8.48769 6.36596L8.18316 7.59717C8.18316 7.59717 9.01253 7.78898 8.99448 7.80035C9.44789 7.91483 9.52835 8.22264 9.51331 8.46751L8.97945 10.6259C9.0191 10.6359 9.05804 10.6486 9.09599 10.6638L8.97719 10.6343L8.22978 13.6577C8.17339 13.7995 8.03203 14.0125 7.71472 13.9344C7.726 13.9504 6.90265 13.7297 6.90265 13.7297L6.34021 15.0504L7.79517 15.4166C7.95906 15.4579 8.12075 15.5003 8.2809 15.5424L8.28109 15.5424C8.38539 15.5698 8.48903 15.597 8.59221 15.6236L8.1185 17.5401L9.23435 17.8207L9.70354 15.9253C9.99944 16.0062 10.2962 16.0838 10.5938 16.1581L10.1269 18.0458L11.2442 18.3263L11.7179 16.4143C13.6248 16.7744 15.061 16.6167 15.6745 14.8374C16.1685 13.4045 15.6617 12.5827 14.6609 12.0497ZM19.7244 16.5508L20.1342 14.8957L21.7756 15.3089L22.0485 14.2051L20.4071 13.7927L20.8161 12.1376L19.7221 11.8624L19.3123 13.5174L17.6709 13.105L17.3979 14.2081L19.0394 14.6205L18.6303 16.2763L19.7244 16.5508ZM13.5218 14.055C13.8537 12.7124 11.9229 12.2766 10.9786 12.0634C10.8724 12.0394 10.7787 12.0182 10.7021 11.9989L10.0758 14.5364C10.1385 14.5521 10.2121 14.5717 10.2945 14.5937L10.2946 14.5937C11.2071 14.8369 13.1992 15.3677 13.5233 14.0542L13.5218 14.055ZM11.7896 8.5873C12.5768 8.76243 14.1895 9.12116 13.888 10.3432C13.5919 11.5385 11.9299 11.0896 11.1708 10.8846C11.1028 10.8662 11.042 10.8498 10.9901 10.8367L11.5593 8.53424C11.623 8.55025 11.7011 8.56762 11.7896 8.5873Z" fill="white"/>
</svg>
