<svg width="25" height="25" viewBox="0 0 25 25" fill="none" xmlns="http://www.w3.org/2000/svg">
<path d="M12.585 0C19.26 0 24.67 5.41111 24.67 12.085C24.67 18.76 19.26 24.17 12.585 24.17C5.91111 24.17 0.5 18.7594 0.5 12.085C0.5 5.41111 5.91111 0 12.585 0Z" fill="#F5AC37"/>
<path d="M13.0302 12.9384H17.6223C17.7202 12.9384 17.7664 12.9384 17.7735 12.81C17.811 12.3429 17.811 11.873 17.7735 11.4053C17.7735 11.3145 17.7284 11.277 17.6299 11.277H8.49087C8.37775 11.277 8.3473 11.3145 8.3473 11.4205V12.7649C8.3473 12.9384 8.3473 12.9384 8.52839 12.9384H13.0302ZM17.2607 9.70583C17.2737 9.67157 17.2737 9.63405 17.2607 9.60033C17.184 9.43337 17.0932 9.27403 16.9877 9.12448C16.8289 8.86888 16.6418 8.6334 16.4286 8.42185C16.328 8.29405 16.2116 8.1793 16.0811 8.08196C15.4274 7.52562 14.6503 7.13188 13.815 6.93393C13.3935 6.8393 12.9628 6.79417 12.531 6.79797H8.47509C8.36198 6.79797 8.34675 6.84311 8.34675 6.94154V9.62263C8.34675 9.73574 8.34675 9.7662 8.49032 9.7662H17.2063C17.2063 9.7662 17.2819 9.75097 17.2971 9.70583H17.2601H17.2607ZM17.2607 14.5095C17.1323 14.4953 17.0029 14.4953 16.8746 14.5095H8.49848C8.38536 14.5095 8.3473 14.5095 8.3473 14.6607V17.2819C8.3473 17.4027 8.3473 17.4331 8.49848 17.4331H12.3657C12.5506 17.4473 12.7355 17.4342 12.9166 17.3956C13.4778 17.3554 14.0298 17.2335 14.5562 17.0329C14.7476 16.9665 14.9325 16.88 15.1071 16.7762H15.1599C16.0664 16.3047 16.8028 15.564 17.2672 14.6547C17.2672 14.6547 17.32 14.5405 17.2607 14.5106V14.5095ZM6.82946 18.7921V18.747V16.9872V16.3906V14.6155C6.82946 14.5171 6.82946 14.5024 6.70873 14.5024H5.06963C4.97881 14.5024 4.94128 14.5024 4.94128 14.3817V12.9465H6.69351C6.7914 12.9465 6.82946 12.9465 6.82946 12.8182V11.3982C6.82946 11.3074 6.82946 11.2851 6.70873 11.2851H5.06963C4.97881 11.2851 4.94128 11.2851 4.94128 11.1644V9.83527C4.94128 9.75206 4.94128 9.72976 5.06201 9.72976H6.68589C6.79901 9.72976 6.82946 9.72976 6.82946 9.58619V5.51508C6.82946 5.39435 6.82946 5.36389 6.98065 5.36389H12.6452C13.0563 5.38021 13.4647 5.42534 13.8688 5.49985C14.7014 5.65375 15.5014 5.95123 16.2328 6.37596C16.7179 6.66147 17.1644 7.00626 17.562 7.40326C17.8611 7.71378 18.1308 8.04987 18.3701 8.40771C18.6077 8.77045 18.8052 9.1582 18.9601 9.56335C18.9792 9.66885 19.0803 9.74009 19.1858 9.72215H20.5378C20.7113 9.72215 20.7113 9.72215 20.7189 9.88856V11.1274C20.7189 11.2481 20.6738 11.2786 20.5525 11.2786H19.51C19.4045 11.2786 19.374 11.2786 19.3816 11.4145C19.4229 11.8746 19.4229 12.3363 19.3816 12.7964C19.3816 12.9248 19.3816 12.94 19.5257 12.94H20.7184C20.7711 13.008 20.7184 13.076 20.7184 13.1445C20.726 13.232 20.726 13.3207 20.7184 13.4082V14.3224C20.7184 14.4508 20.6808 14.4888 20.5672 14.4888H19.1396C19.0401 14.4698 18.9433 14.5334 18.9204 14.6324C18.5806 15.5161 18.0367 16.3085 17.3341 16.9437C17.0774 17.1748 16.8077 17.3923 16.526 17.593C16.2236 17.767 15.9294 17.9481 15.6194 18.0917C15.0489 18.3484 14.4507 18.5376 13.8367 18.6578C13.2537 18.7622 12.6626 18.8096 12.0693 18.8014H6.82729V18.7938L6.82946 18.7921Z" fill="#FEFEFD"/>
</svg>
