<svg width="21" height="20" viewBox="0 0 21 20" fill="none" xmlns="http://www.w3.org/2000/svg">
<path d="M0.691162 19.8726V15.2102H3.41728V4.58601H0.703901V0.114668H1.09881C4.7676 0.114668 8.41091 0.127406 12.0797 0.101929C12.895 0.101929 13.6084 0.318489 14.3217 0.598744C15.7612 1.14651 17.0224 2.00002 18.0287 3.19747C18.9205 4.26753 19.5319 5.5032 19.8504 6.85352C20.3854 9.19747 20.3982 11.5669 19.723 13.8854C18.8313 16.9045 16.9205 18.9809 13.7485 19.6815C13.2007 19.8089 12.6147 19.8854 12.0415 19.8854H1.13702C0.996895 19.8726 0.856767 19.8726 0.691162 19.8726ZM8.97142 15.1975C9.59562 15.1975 10.1943 15.2357 10.7931 15.1847C11.5701 15.1083 12.2708 14.8663 12.7931 14.1911C13.2389 13.6179 13.6338 13.0446 13.8249 12.3694C14.2453 10.8917 14.0797 9.38855 13.7867 7.89811C13.6211 7.00639 13.2007 6.1911 12.6402 5.51594C12.309 5.13378 11.8504 4.70065 11.3918 4.62422C10.6275 4.48409 9.79944 4.58601 8.97142 4.58601V15.1975Z" fill="#E6C645"/>
</svg>
