<svg width="23" height="22" viewBox="0 0 23 22" fill="none" xmlns="http://www.w3.org/2000/svg">
<path d="M11.6148 1.83337V8.58182C11.6148 8.61046 11.5862 8.63911 11.5575 8.63911C11.357 8.72669 11.1851 8.81345 10.9846 8.90021C10.7268 9.01562 10.4403 9.13184 10.1825 9.27671L9.23712 9.71051L8.46365 10.0584L7.5183 10.493C7.26047 10.6092 7.00265 10.7246 6.71618 10.8695C6.51565 10.9563 6.28647 11.0725 6.08594 11.1592C6.05729 11.1592 6.05729 11.1879 6.02865 11.1592H6C6.08594 11.0144 6.17188 10.8981 6.25782 10.7541C6.71618 9.97161 7.20318 9.18995 7.66153 8.40748C8.14853 7.56853 8.66418 6.72794 9.15118 5.88817C9.60954 5.10651 10.0679 4.32485 10.5262 3.57184C10.87 2.99154 11.2138 2.44233 11.5289 1.86202C11.5862 1.86202 11.5862 1.83337 11.6148 1.83337C11.6148 1.83337 11.5862 1.83337 11.6148 1.83337Z" fill="#8C8C8C"/>
<path d="M17.1724 11.1592C16.7427 11.449 16.2843 11.7093 15.8546 11.9696C14.4509 12.8101 13.0758 13.6213 11.6721 14.461C11.6435 14.461 11.6435 14.4897 11.6148 14.4897C11.5862 14.4897 11.5862 14.461 11.5862 14.461V8.63912C11.5862 8.61047 11.6148 8.61047 11.6435 8.61047C11.7581 8.66777 11.8727 8.7267 12.0159 8.78399C12.3597 8.95833 12.7321 9.1032 13.0758 9.27672C13.3909 9.4216 13.6774 9.56647 13.9925 9.68188C14.3077 9.82675 14.5941 9.97162 14.9092 10.1165C15.1671 10.2327 15.4535 10.3481 15.7114 10.493C15.9692 10.6092 16.2557 10.7246 16.5135 10.8695C16.714 10.9563 16.9145 11.0725 17.1437 11.1592C17.1437 11.1306 17.1437 11.1592 17.1724 11.1592Z" fill="#141414"/>
<path d="M11.6149 20.1667C11.6149 20.1667 11.5862 20.1667 11.6149 20.1667C11.5862 20.1667 11.5862 20.1667 11.5576 20.1373C10.9846 19.327 10.4403 18.5445 9.8674 17.7334L8.14857 15.3008C7.60428 14.5192 7.03134 13.7375 6.48704 12.9256L6.05733 12.3174C6.05733 12.2888 6.02869 12.2888 6.02869 12.2601C6.05733 12.2601 6.05733 12.2888 6.08598 12.2888C6.85945 12.752 7.66157 13.2153 8.43504 13.6786C9.3231 14.2294 10.2398 14.7508 11.1279 15.3008C11.2711 15.3876 11.443 15.4743 11.5862 15.5611C11.6149 15.5611 11.6149 15.5906 11.6149 15.6192V20.1667Z" fill="#8C8C8C"/>
<path d="M6 10.8561C6 10.8274 6 10.8274 6 10.8561C6.28647 10.7112 6.57294 10.5958 6.85941 10.4509L7.97665 9.92954C8.26312 9.78467 8.54959 9.66926 8.83606 9.52439C9.23712 9.3214 9.66683 9.14788 10.0679 8.9449C10.3544 8.82867 10.6408 8.6838 10.9273 8.56839C11.1278 8.48163 11.3284 8.39487 11.5289 8.27865C11.5575 8.27865 11.5575 8.25 11.5862 8.25V14.1579C11.5575 14.1873 11.5575 14.1579 11.5289 14.1579C11.443 14.1006 11.357 14.0711 11.2997 14.013L6.05729 10.8855C6.02865 10.8561 6 10.8561 6 10.8561ZM17.0864 11.9283C17.0864 11.9569 17.0864 11.9569 17.0578 11.9856C15.3963 14.3608 13.7347 16.7066 12.0732 19.0819C11.9013 19.3422 11.7294 19.5738 11.5575 19.8349V15.2293C11.93 14.9976 12.3024 14.766 12.6748 14.5638L17.0578 11.9569C17.0578 11.9283 17.0864 11.9283 17.0864 11.9283Z" fill="#3C3C3B"/>
<path d="M11.6149 8.61045V1.86365L17.1151 11.0733C17.1438 11.1019 17.1724 11.1306 17.1724 11.16C17.0578 11.1028 16.9432 11.0438 16.8 10.9865C16.6568 10.9284 16.5135 10.8417 16.3703 10.7835C16.2843 10.7549 16.1984 10.6968 16.0838 10.6673C15.9406 10.61 15.7687 10.5224 15.6255 10.4651C15.5395 10.4357 15.4536 10.3784 15.3676 10.3489L14.7661 10.0886C14.6515 10.0305 14.5655 10.0019 14.4509 9.94377C14.3077 9.88566 14.1645 9.7989 14.0212 9.74079C13.9353 9.71214 13.8493 9.65403 13.7634 9.62538L13.1618 9.36428C13.0472 9.30699 12.9613 9.27752 12.8467 9.21941C12.7035 9.16211 12.5602 9.07454 12.417 9.01642C12.331 8.95913 12.2165 8.92966 12.1305 8.87237L11.6149 8.61127V8.61045Z" fill="#343434"/>
</svg>
