<svg width="29" height="28" viewBox="0 0 29 28" fill="none" xmlns="http://www.w3.org/2000/svg">
<path fill-rule="evenodd" clip-rule="evenodd" d="M7.10876 3.95327L2.85246 12.8918C2.83544 12.9242 2.82958 12.9613 2.83578 12.9973C2.84199 13.0334 2.85991 13.0664 2.88678 13.0912L14.3763 24.1064C14.4094 24.1362 14.4523 24.1527 14.4968 24.1527C14.5413 24.1527 14.5843 24.1362 14.6173 24.1064L26.1138 13.0912C26.1403 13.0662 26.1581 13.0332 26.1643 12.9973C26.1705 12.9613 26.1648 12.9243 26.1481 12.8918L21.8918 3.95327C21.8805 3.92218 21.8596 3.89545 21.8323 3.87689C21.8049 3.85834 21.7723 3.8489 21.7393 3.84993H7.25976C7.22713 3.85082 7.19543 3.86102 7.16841 3.87933C7.14139 3.89764 7.12016 3.92329 7.10723 3.95327H7.10876Z" fill="#50AF95"/>
<path fill-rule="evenodd" clip-rule="evenodd" d="M15.979 13.8062C15.8966 13.8131 15.4703 13.8405 14.5212 13.8405C13.765 13.8405 13.2285 13.8199 13.0359 13.8062C10.1139 13.6758 7.93425 13.1667 7.93425 12.5616C7.93425 11.9564 10.1139 11.4409 13.0359 11.3105V13.2975C13.2266 13.3113 13.7719 13.3456 14.528 13.3456C15.4356 13.3456 15.8894 13.3044 15.9721 13.2975V11.3105C18.8873 11.4409 21.0669 11.95 21.0669 12.5547C21.0669 13.1595 18.8934 13.6758 15.979 13.8062ZM15.979 11.111V9.3299H20.0496V6.61414H8.96572V9.3299H13.0359V11.111C9.72875 11.2636 7.23987 11.9153 7.23987 12.7061C7.23987 13.497 9.72875 14.1433 13.0359 14.3012V20.0015H15.979V14.3012C19.2793 14.1486 21.7617 13.4966 21.7617 12.713C21.7617 11.9294 19.2793 11.262 15.979 11.1114V11.111Z" fill="white"/>
</svg>
