<svg width="27" height="26" viewBox="0 0 27 26" fill="none" xmlns="http://www.w3.org/2000/svg">
<path d="M13.3028 25.2197C20.0832 25.2197 25.5381 19.7649 25.5381 12.9844C25.5381 6.20401 20.0832 0.749146 13.3028 0.749146C6.52237 0.749146 1.0675 6.20401 1.0675 12.9844C1.0675 19.7649 6.52237 25.2197 13.3028 25.2197Z" fill="#2775CA"/>
<path d="M16.6677 14.9226C16.6677 13.1383 15.5971 12.5265 13.4559 12.2717C11.9266 12.0677 11.6207 11.6599 11.6207 10.9461C11.6207 10.2323 12.1305 9.77358 13.1501 9.77358C14.0677 9.77358 14.5775 10.0795 14.8324 10.8442C14.8834 10.9971 15.0364 11.099 15.1893 11.099H16.0049C16.2088 11.099 16.3618 10.9461 16.3618 10.7422V10.6912C16.1578 9.56961 15.2402 8.70299 14.0677 8.60106V7.37753C14.0677 7.17357 13.9148 7.02063 13.6599 6.9696H12.8952C12.6912 6.9696 12.5383 7.12255 12.4873 7.37753V8.55004C10.9579 8.75401 9.98936 9.77358 9.98936 11.0481C9.98936 12.7305 11.0089 13.3932 13.1501 13.6481C14.5775 13.903 15.0364 14.2089 15.0364 15.0246C15.0364 15.8403 14.3226 16.4011 13.354 16.4011C12.0285 16.4011 11.5697 15.8402 11.4167 15.0755C11.3658 14.8717 11.2129 14.7696 11.0599 14.7696H10.1932C9.98937 14.7696 9.83643 14.9226 9.83643 15.1265V15.1776C10.0403 16.452 10.856 17.3696 12.5383 17.6246V18.8482C12.5383 19.052 12.6912 19.2049 12.9461 19.256H13.7108C13.9148 19.256 14.0677 19.103 14.1187 18.8482V17.6246C15.6481 17.3696 16.6677 16.2991 16.6677 14.9226Z" fill="white"/>
<path d="M10.704 20.2761C6.72755 18.8487 4.6883 14.4135 6.16681 10.4879C6.93151 8.3467 8.61387 6.71537 10.704 5.95067C10.908 5.84875 11.0099 5.69581 11.0099 5.44082V4.72714C11.0099 4.52318 10.908 4.37023 10.704 4.31934C10.653 4.31934 10.5511 4.31934 10.5001 4.37023C5.65696 5.89965 3.00594 11.0487 4.53535 15.8918C5.453 18.7467 7.6452 20.9389 10.5001 21.8565C10.704 21.9585 10.908 21.8565 10.9589 21.6526C11.0099 21.6017 11.0099 21.5507 11.0099 21.4487V20.7349C11.0099 20.582 10.857 20.3782 10.704 20.2761ZM16.108 4.37023C15.904 4.26831 15.7001 4.37023 15.6492 4.5742C15.5981 4.62522 15.5981 4.67612 15.5981 4.77816V5.49184C15.5981 5.69581 15.7511 5.89965 15.904 6.00169C19.8805 7.42906 21.9197 11.8644 20.4412 15.7899C19.6765 17.9311 17.9942 19.5624 15.904 20.3271C15.7001 20.4291 15.5981 20.582 15.5981 20.837V21.5507C15.5981 21.7546 15.7001 21.9076 15.904 21.9585C15.955 21.9585 16.057 21.9585 16.108 21.9076C20.9511 20.3782 23.6021 15.2291 22.0727 10.386C21.155 7.48008 18.9118 5.28788 16.108 4.37023Z" fill="white"/>
</svg>
