<svg width="27" height="26" viewBox="0 0 27 26" fill="none" xmlns="http://www.w3.org/2000/svg">
<path d="M15.5148 20.1599V22.5881L13.3979 23.8333L11.3433 22.5881V20.1599L13.3979 21.4051L15.5148 20.1599ZM4.18335 11.7547L6.23795 13V17.1714L9.7868 19.2883V21.7164L4.18335 18.4166V11.7547ZM22.6125 11.7547V18.4166L16.9468 21.7164V19.2883L20.4956 17.1714V13L22.6125 11.7547ZM16.9468 8.45494L19.0636 9.70015V12.1283L15.5148 14.2452V18.4789L13.4602 19.7241L11.4056 18.4789V14.2452L7.7322 12.1283V9.70015L9.84906 8.45494L13.3979 10.5718L16.9468 8.45494ZM7.7322 13.8716L9.7868 15.1168V17.545L7.7322 16.2998V13.8716ZM19.0636 13.8716V16.2998L17.009 17.545V15.1168L19.0636 13.8716ZM6.23795 6.33808L8.35481 7.58329L6.23795 8.8285V11.2567L4.18335 10.0115V7.58329L6.23795 6.33808ZM20.5579 6.33808L22.6747 7.58329V10.0115L20.5579 11.2567V8.8285L18.5033 7.58329L20.5579 6.33808ZM13.3979 6.33808L15.5148 7.58329L13.3979 8.8285L11.3433 7.58329L13.3979 6.33808ZM13.3979 2.16663L19.0636 5.46643L17.009 6.71165L13.4602 4.59479L9.84906 6.71165L7.79446 5.46643L13.3979 2.16663Z" fill="#F3BA2F"/>
</svg>
