<svg width="25" height="25" viewBox="0 0 25 25" fill="none" xmlns="http://www.w3.org/2000/svg">
<path d="M7.14204 24.17C13.3704 24.17 13.3704 24.0777 14.4264 23.7655C15.8065 23.3576 10.5299 19.7203 7.14204 19.7203C3.7542 19.7203 1.00781 20.7164 1.00781 21.9452C1.00781 23.1739 3.75434 24.17 7.14204 24.17Z" fill="black"/>
<path d="M21.2847 5.25039L21.5712 5.55781L21.3207 5.89501C13.1978 16.8318 8.51852 21.7837 6.53314 21.1196C5.32384 20.715 4.11108 19.4984 2.8983 17.7318C2.47201 17.1108 2.07171 16.4569 1.70764 15.8062C1.4652 15.3729 1.25999 14.9777 1.15345 14.7551C1.01754 14.4712 0.960154 14.2963 0.91463 14.0666C0.911852 14.0525 0.911852 14.0525 0.909213 14.039C0.890212 13.9414 0.883638 13.9106 0.869435 13.8573C0.625013 12.9399 0.5 11.9895 0.5 11.0231C0.5 4.93523 5.45596 0 11.5695 0C13.4847 0 15.3304 0.485405 16.9661 1.39659L17.0084 1.42291C18.3476 2.35139 19.7721 3.6272 21.2847 5.25039ZM16.4487 2.26714C14.9689 1.44758 13.3015 1.0113 11.5695 1.0113C6.01683 1.0113 1.51555 5.49375 1.51555 11.0231C1.51555 11.9018 1.62909 12.765 1.85102 13.5979C1.87296 13.6803 1.88289 13.7268 1.90617 13.8463C1.90861 13.8589 1.90861 13.8589 1.91096 13.8708C1.94034 14.019 1.97134 14.1135 2.07018 14.32C2.16737 14.5231 2.3627 14.8992 2.59478 15.314C2.94469 15.9394 3.32923 16.5676 3.73666 17.1611C4.83239 18.7572 5.91908 19.8473 6.85653 20.1609C8.10683 20.5792 12.8137 15.6174 20.2523 5.63239C18.9018 4.21289 17.6332 3.09113 16.4487 2.26714Z" fill="black"/>
<path d="M16.4482 2.26719C14.9685 1.44763 13.3011 1.01135 11.569 1.01135C6.01642 1.01135 1.51514 5.49381 1.51514 11.0232C1.51514 11.9018 1.62868 12.7651 1.85061 13.598C1.87255 13.6804 1.88248 13.7269 1.90576 13.8464C1.9082 13.8589 1.9082 13.8589 1.91055 13.8708C1.93993 14.0191 1.97093 14.1136 2.06977 14.3201C2.16696 14.5231 2.36229 14.8993 2.59437 15.3141C2.94429 15.9395 3.32882 16.5676 3.73625 17.1611C4.83198 18.7572 5.91867 19.8474 6.85612 20.161C8.10642 20.5792 12.8133 15.6175 20.2519 5.63244C18.9014 4.21295 17.6328 3.09118 16.4482 2.26719Z" fill="#EC1C79"/>
<path d="M13.6007 24.069C7.48721 24.069 2.53125 19.1338 2.53125 13.0458C2.53125 6.95793 7.48721 2.02271 13.6007 2.02271C19.7142 2.02271 24.6702 6.95793 24.6702 13.0458C24.6702 19.1338 19.7142 24.069 13.6007 24.069ZM13.6007 23.0577C19.1533 23.0577 23.6546 18.5752 23.6546 13.0458C23.6546 7.51646 19.1533 3.034 13.6007 3.034C8.04808 3.034 3.5468 7.51646 3.5468 13.0458C3.5468 18.5752 8.04808 23.0577 13.6007 23.0577Z" fill="black"/>
<path d="M13.6003 23.0577C19.1529 23.0577 23.6542 18.5753 23.6542 13.0459C23.6542 7.51651 19.1529 3.03406 13.6003 3.03406C8.04767 3.03406 3.54639 7.51651 3.54639 13.0459C3.54639 18.5753 8.04767 23.0577 13.6003 23.0577Z" fill="white"/>
<path fill-rule="evenodd" clip-rule="evenodd" d="M6.0798 15.0967L4.74902 11.1041H5.91487L6.60869 13.3977L7.37644 11.0928H8.32618L9.09394 13.3977L9.78776 11.1041H10.9309L9.60008 15.0967H8.63897L7.8371 12.8144L7.04091 15.0967H6.0798ZM11.3688 15.0684V11.1041H14.5706V12.0385H12.4607V12.6388H14.3715V13.5053H12.4607V14.1339H14.599V15.0684H11.3688ZM16.1345 15.0684V12.0669H14.9402V11.1041H18.4321V12.0669H17.2378V15.0684H16.1345ZM18.9155 15.0684V11.1041H20.0188V12.5879H21.4349V11.1041H22.5381V15.0684H21.4349V13.562H20.0188V15.0684H18.9155Z" fill="black"/>
<path d="M1.15971 9.91173C0.878784 9.77186 0.764915 9.43168 0.905379 9.15193C1.04584 8.87217 1.38745 8.75878 1.66838 8.89866L3.29325 9.7077C3.57418 9.84757 3.68805 10.1877 3.54759 10.4675C3.40712 10.7473 3.06551 10.8606 2.78459 10.7208L1.15971 9.91173Z" fill="black"/>
<path d="M0.972623 12.5945C0.687442 12.4634 0.562951 12.1269 0.694566 11.8429C0.82618 11.559 1.16406 11.435 1.44924 11.5661L3.07412 12.3128C3.3593 12.4439 3.48379 12.7803 3.35217 13.0643C3.22056 13.3483 2.88268 13.4723 2.5975 13.3412L0.972623 12.5945Z" fill="black"/>
</svg>
