<svg width="17" height="16" viewBox="0 0 17 16" fill="none" xmlns="http://www.w3.org/2000/svg">
<g clip-path="url(#clip0_0_452)">
<path d="M14.1562 1.33337H16.4687L11.6562 6.09837C9.91336 7.82306 7.08773 7.82306 5.34367 6.09837L0.529297 1.33337H2.84367L6.49992 4.95306C7.03263 5.47809 7.75055 5.77242 8.49851 5.77242C9.24647 5.77242 9.96439 5.47809 10.4971 4.95306L14.1562 1.33337Z" fill="#23292F"/>
<path d="M2.81406 14.5834H0.5L5.34375 9.789C7.08656 8.06431 9.91219 8.06431 11.6562 9.789L16.5 14.5834H14.1875L10.5 10.9343C9.96729 10.4093 9.24937 10.115 8.50141 10.115C7.75345 10.115 7.03553 10.4093 6.50281 10.9343L2.81406 14.5834Z" fill="#23292F"/>
</g>
<defs>
<clipPath id="clip0_0_452">
<rect width="16" height="16" fill="white" transform="translate(0.5)"/>
</clipPath>
</defs>
</svg>
